<?xml version="1.0" encoding="utf-8"?>
<!DOCTYPE svg PUBLIC "-//W3C//DTD SVG 20010904//EN" "http://www.w3.org/TR/2001/REC-SVG-20010904/DTD/svg10.dtd">
<svg version="1.0" xmlns="http://www.w3.org/2000/svg" width="50pt" height="50pt" viewBox="0 0 50 50" style="" preserveAspectRatio="xMidYMid meet">
<g fill="#165BA6FF" stroke="#165BA6FF">
<path d="M 2.167 7.849 C 2.350 8.316 6.971 16.416 12.437 25.849 C 21.229 41.026 22.669 43.000 24.944 43.000 C 26.925 43.000 28.144 41.958 30.257 38.459 C 31.766 35.962 33.000 33.428 33.000 32.828 C 33.000 32.229 29.802 26.147 25.893 19.313 C 19.627 8.358 18.503 6.924 16.393 7.194 C 14.073 7.491 14.218 7.882 21.074 19.864 C 27.676 31.401 28.069 32.420 26.953 35.114 C 26.295 36.701 25.473 38.000 25.126 38.000 C 24.778 38.000 20.497 31.025 15.612 22.500 C 7.956 9.138 6.393 7.000 4.282 7.000 C 2.935 7.000 1.983 7.382 2.167 7.849 "/></g>
<g fill="#165BA6FF" stroke="#165BA6FF">
<path d="M 29.495 13.250 C 31.481 16.688 33.840 20.963 34.738 22.750 C 36.684 26.624 37.748 26.854 38.569 23.579 C 38.980 21.942 38.340 19.729 36.589 16.741 C 35.165 14.312 34.000 12.026 34.000 11.662 C 34.000 11.298 35.340 11.000 36.977 11.000 C 39.063 11.000 40.453 11.762 41.621 13.545 L 43.289 16.090 45.644 11.943 C 46.940 9.662 48.000 7.617 48.000 7.398 C 48.000 7.179 43.024 7.000 36.942 7.000 L 25.884 7.000 29.495 13.250 "/></g>
</svg>
